<svg width="120" height="120" viewBox="0 0 120 120" fill="none" xmlns="http://www.w3.org/2000/svg" role="img" aria-label="Querida Gratidão Yoga">
  <g stroke="#6F7F6A" stroke-width="2.4" stroke-linecap="round" stroke-linejoin="round" fill="none">
    <!-- center petal -->
    <path d="M60 26 C53 42 53 58 60 72 C67 58 67 42 60 26 Z"/>
    <!-- inner side petals -->
    <path d="M60 72 C47 64 39 52 38 38 C50 44 58 56 60 72 Z"/>
    <path d="M60 72 C73 64 81 52 82 38 C70 44 62 56 60 72 Z"/>
    <!-- outer side petals -->
    <path d="M60 74 C42 72 28 64 22 52 C36 52 52 60 60 74 Z"/>
    <path d="M60 74 C78 72 92 64 98 52 C84 52 68 60 60 74 Z"/>
  </g>
  <!-- water line -->
  <path d="M30 84 C42 90 78 90 90 84" stroke="#C9A24B" stroke-width="2.2" stroke-linecap="round" fill="none"/>
</svg>
